<svg width="721" height="218" viewBox="0 0 721 218" fill="none" xmlns="http://www.w3.org/2000/svg">
<path d="M135.472 62L120.368 17.2H125.232L139.376 59.376H136.944L151.536 17.2H155.888L170.288 59.376H167.984L182.256 17.2H186.8L171.696 62H166.704L152.944 22H154.224L140.4 62H135.472ZM199.708 37.232H223.388V41.264H199.708V37.232ZM200.22 57.904H227.164V62H195.484V17.2H226.204V21.296H200.22V57.904ZM238.296 62V17.2H243.032V57.904H268.12V62H238.296ZM294.565 62.384C291.194 62.384 288.079 61.8293 285.221 60.72C282.362 59.568 279.887 57.968 277.797 55.92C275.706 53.872 274.063 51.4613 272.869 48.688C271.717 45.9147 271.141 42.8853 271.141 39.6C271.141 36.3147 271.717 33.2853 272.869 30.512C274.063 27.7387 275.706 25.328 277.797 23.28C279.93 21.232 282.426 19.6533 285.285 18.544C288.143 17.392 291.258 16.816 294.629 16.816C297.871 16.816 300.922 17.3707 303.781 18.48C306.639 19.5467 309.05 21.168 311.013 23.344L308.005 26.352C306.17 24.4747 304.143 23.1307 301.925 22.32C299.706 21.4667 297.317 21.04 294.757 21.04C292.069 21.04 289.573 21.5093 287.269 22.448C284.965 23.344 282.959 24.6453 281.253 26.352C279.546 28.016 278.202 29.9787 277.22 32.24C276.282 34.4587 275.812 36.912 275.812 39.6C275.812 42.288 276.282 44.7627 277.22 47.024C278.202 49.2427 279.546 51.2053 281.253 52.912C282.959 54.576 284.965 55.8773 287.269 56.816C289.573 57.712 292.069 58.16 294.757 58.16C297.317 58.16 299.706 57.7333 301.925 56.88C304.143 56.0267 306.17 54.6613 308.005 52.784L311.013 55.792C309.05 57.968 306.639 59.6107 303.781 60.72C300.922 61.8293 297.85 62.384 294.565 62.384ZM339.755 62.384C336.384 62.384 333.248 61.8293 330.347 60.72C327.488 59.568 324.992 57.968 322.859 55.92C320.768 53.8293 319.126 51.4187 317.931 48.688C316.779 45.9147 316.203 42.8853 316.203 39.6C316.203 36.3147 316.779 33.3067 317.931 30.576C319.126 27.8027 320.768 25.392 322.859 23.344C324.992 21.2533 327.488 19.6533 330.347 18.544C333.206 17.392 336.342 16.816 339.755 16.816C343.126 16.816 346.24 17.392 349.099 18.544C351.958 19.6533 354.432 21.232 356.523 23.28C358.656 25.328 360.299 27.7387 361.451 30.512C362.646 33.2853 363.243 36.3147 363.243 39.6C363.243 42.8853 362.646 45.9147 361.451 48.688C360.299 51.4613 358.656 53.872 356.523 55.92C354.432 57.968 351.958 59.568 349.099 60.72C346.24 61.8293 343.126 62.384 339.755 62.384ZM339.755 58.16C342.443 58.16 344.918 57.712 347.179 56.816C349.483 55.8773 351.467 54.576 353.131 52.912C354.838 51.2053 356.16 49.2427 357.099 47.024C358.038 44.7627 358.507 42.288 358.507 39.6C358.507 36.912 358.038 34.4587 357.099 32.24C356.16 29.9787 354.838 28.016 353.131 26.352C351.467 24.6453 349.483 23.344 347.179 22.448C344.918 21.5093 342.443 21.04 339.755 21.04C337.067 21.04 334.571 21.5093 332.267 22.448C329.963 23.344 327.958 24.6453 326.251 26.352C324.587 28.016 323.264 29.9787 322.283 32.24C321.344 34.4587 320.875 36.912 320.875 39.6C320.875 42.2453 321.344 44.6987 322.283 46.96C323.264 49.2213 324.587 51.2053 326.251 52.912C327.958 54.576 329.963 55.8773 332.267 56.816C334.571 57.712 337.067 58.16 339.755 58.16ZM373.859 62V17.2H377.763L398.243 52.144H396.195L416.483 17.2H420.387V62H415.843V24.304H416.931L398.243 56.304H396.003L377.187 24.304H378.403V62H373.859ZM439.208 37.232H462.888V41.264H439.208V37.232ZM439.72 57.904H466.664V62H434.984V17.2H465.704V21.296H439.72V57.904ZM503.25 62V21.296H487.506V17.2H523.73V21.296H507.986V62H503.25ZM550.255 62.384C546.884 62.384 543.748 61.8293 540.847 60.72C537.988 59.568 535.492 57.968 533.359 55.92C531.268 53.8293 529.626 51.4187 528.431 48.688C527.279 45.9147 526.703 42.8853 526.703 39.6C526.703 36.3147 527.279 33.3067 528.431 30.576C529.626 27.8027 531.268 25.392 533.359 23.344C535.492 21.2533 537.988 19.6533 540.847 18.544C543.706 17.392 546.842 16.816 550.255 16.816C553.626 16.816 556.74 17.392 559.599 18.544C562.458 19.6533 564.932 21.232 567.023 23.28C569.156 25.328 570.799 27.7387 571.951 30.512C573.146 33.2853 573.743 36.3147 573.743 39.6C573.743 42.8853 573.146 45.9147 571.951 48.688C570.799 51.4613 569.156 53.872 567.023 55.92C564.932 57.968 562.458 59.568 559.599 60.72C556.74 61.8293 553.626 62.384 550.255 62.384ZM550.255 58.16C552.943 58.16 555.418 57.712 557.679 56.816C559.983 55.8773 561.967 54.576 563.631 52.912C565.338 51.2053 566.66 49.2427 567.599 47.024C568.538 44.7627 569.007 42.288 569.007 39.6C569.007 36.912 568.538 34.4587 567.599 32.24C566.66 29.9787 565.338 28.016 563.631 26.352C561.967 24.6453 559.983 23.344 557.679 22.448C555.418 21.5093 552.943 21.04 550.255 21.04C547.567 21.04 545.071 21.5093 542.767 22.448C540.463 23.344 538.458 24.6453 536.751 26.352C535.087 28.016 533.764 29.9787 532.783 32.24C531.844 34.4587 531.375 36.912 531.375 39.6C531.375 42.2453 531.844 44.6987 532.783 46.96C533.764 49.2213 535.087 51.2053 536.751 52.912C538.458 54.576 540.463 55.8773 542.767 56.816C545.071 57.712 547.567 58.16 550.255 58.16Z" fill="white"/>
<path d="M0.384 186L38.912 132.88V147.984L2.048 96.4H25.6L51.072 132.368L41.216 132.496L66.304 96.4H88.832L52.224 147.088V132.24L91.008 186H67.072L40.704 147.984H50.176L24.192 186H0.384ZM99.124 186V96.4H137.908C145.929 96.4 152.841 97.7227 158.644 100.368C164.447 102.928 168.927 106.64 172.084 111.504C175.241 116.368 176.82 122.171 176.82 128.912C176.82 135.568 175.241 141.328 172.084 146.192C168.927 151.056 164.447 154.811 158.644 157.456C152.841 160.016 145.929 161.296 137.908 161.296H110.644L119.86 151.952V186H99.124ZM119.86 154.256L110.644 144.4H136.756C143.156 144.4 147.935 143.035 151.092 140.304C154.249 137.573 155.828 133.776 155.828 128.912C155.828 123.963 154.249 120.123 151.092 117.392C147.935 114.661 143.156 113.296 136.756 113.296H110.644L119.86 103.44V154.256ZM191.624 186V96.4H212.36V169.104H257.288V186H191.624ZM310.894 187.536C303.811 187.536 297.241 186.384 291.182 184.08C285.209 181.776 280.003 178.533 275.566 174.352C271.214 170.171 267.801 165.264 265.326 159.632C262.937 154 261.742 147.856 261.742 141.2C261.742 134.544 262.937 128.4 265.326 122.768C267.801 117.136 271.257 112.229 275.694 108.048C280.131 103.867 285.337 100.624 291.31 98.32C297.283 96.016 303.769 94.864 310.766 94.864C317.849 94.864 324.334 96.016 330.222 98.32C336.195 100.624 341.358 103.867 345.71 108.048C350.147 112.229 353.603 117.136 356.078 122.768C358.553 128.315 359.79 134.459 359.79 141.2C359.79 147.856 358.553 154.043 356.078 159.76C353.603 165.392 350.147 170.299 345.71 174.48C341.358 178.576 336.195 181.776 330.222 184.08C324.334 186.384 317.891 187.536 310.894 187.536ZM310.766 169.872C314.777 169.872 318.446 169.189 321.774 167.824C325.187 166.459 328.174 164.496 330.734 161.936C333.294 159.376 335.257 156.347 336.622 152.848C338.073 149.349 338.798 145.467 338.798 141.2C338.798 136.933 338.073 133.051 336.622 129.552C335.257 126.053 333.294 123.024 330.734 120.464C328.259 117.904 325.315 115.941 321.902 114.576C318.489 113.211 314.777 112.528 310.766 112.528C306.755 112.528 303.043 113.211 299.63 114.576C296.302 115.941 293.358 117.904 290.798 120.464C288.238 123.024 286.233 126.053 284.782 129.552C283.417 133.051 282.734 136.933 282.734 141.2C282.734 145.381 283.417 149.264 284.782 152.848C286.233 156.347 288.195 159.376 290.67 161.936C293.23 164.496 296.217 166.459 299.63 167.824C303.043 169.189 306.755 169.872 310.766 169.872ZM375.374 186V96.4H414.158C422.179 96.4 429.091 97.7227 434.894 100.368C440.697 102.928 445.177 106.64 448.334 111.504C451.491 116.368 453.07 122.171 453.07 128.912C453.07 135.568 451.491 141.328 448.334 146.192C445.177 150.971 440.697 154.64 434.894 157.2C429.091 159.76 422.179 161.04 414.158 161.04H386.894L396.11 151.952V186H375.374ZM432.334 186L409.934 153.488H432.078L454.734 186H432.334ZM396.11 154.256L386.894 144.528H413.006C419.406 144.528 424.185 143.163 427.342 140.432C430.499 137.616 432.078 133.776 432.078 128.912C432.078 123.963 430.499 120.123 427.342 117.392C424.185 114.661 419.406 113.296 413.006 113.296H386.894L396.11 103.44V154.256ZM488.571 132.496H531.707V148.624H488.571V132.496ZM490.107 169.36H538.875V186H469.499V96.4H537.211V113.04H490.107V169.36ZM555.374 186V96.4H594.158C602.179 96.4 609.091 97.7227 614.894 100.368C620.697 102.928 625.177 106.64 628.334 111.504C631.491 116.368 633.07 122.171 633.07 128.912C633.07 135.568 631.491 141.328 628.334 146.192C625.177 150.971 620.697 154.64 614.894 157.2C609.091 159.76 602.179 161.04 594.158 161.04H566.894L576.11 151.952V186H555.374ZM612.334 186L589.934 153.488H612.078L634.734 186H612.334ZM576.11 154.256L566.894 144.528H593.006C599.406 144.528 604.185 143.163 607.342 140.432C610.499 137.616 612.078 133.776 612.078 128.912C612.078 123.963 610.499 120.123 607.342 117.392C604.185 114.661 599.406 113.296 593.006 113.296H566.894L576.11 103.44V154.256ZM678.939 187.536C671.771 187.536 664.902 186.597 658.331 184.72C651.76 182.757 646.47 180.24 642.459 177.168L649.499 161.552C653.339 164.283 657.862 166.544 663.067 168.336C668.358 170.043 673.691 170.896 679.067 170.896C683.163 170.896 686.448 170.512 688.923 169.744C691.483 168.891 693.36 167.739 694.555 166.288C695.75 164.837 696.347 163.173 696.347 161.296C696.347 158.907 695.408 157.029 693.531 155.664C691.654 154.213 689.179 153.061 686.107 152.208C683.035 151.269 679.622 150.416 675.867 149.648C672.198 148.795 668.486 147.771 664.731 146.576C661.062 145.381 657.691 143.845 654.619 141.968C651.547 140.091 649.03 137.616 647.067 134.544C645.19 131.472 644.251 127.547 644.251 122.768C644.251 117.648 645.616 112.997 648.347 108.816C651.163 104.549 655.344 101.179 660.891 98.704C666.523 96.144 673.563 94.864 682.011 94.864C687.643 94.864 693.19 95.5467 698.651 96.912C704.112 98.192 708.934 100.155 713.115 102.8L706.715 118.544C702.534 116.155 698.352 114.405 694.171 113.296C689.99 112.101 685.894 111.504 681.883 111.504C677.872 111.504 674.587 111.973 672.027 112.912C669.467 113.851 667.632 115.088 666.523 116.624C665.414 118.075 664.859 119.781 664.859 121.744C664.859 124.048 665.798 125.925 667.675 127.376C669.552 128.741 672.027 129.851 675.099 130.704C678.171 131.557 681.542 132.411 685.211 133.264C688.966 134.117 692.678 135.099 696.347 136.208C700.102 137.317 703.515 138.811 706.587 140.688C709.659 142.565 712.134 145.04 714.011 148.112C715.974 151.184 716.955 155.067 716.955 159.76C716.955 164.795 715.547 169.403 712.731 173.584C709.915 177.765 705.691 181.136 700.059 183.696C694.512 186.256 687.472 187.536 678.939 187.536Z" fill="url(#paint0_linear_18_5)"/>
<defs>
<linearGradient id="paint0_linear_18_5" x1="384.5" y1="100.5" x2="384.5" y2="186" gradientUnits="userSpaceOnUse">
<stop stop-color="white"/>
<stop offset="1" stop-color="#3F3E3E"/>
</linearGradient>
</defs>
</svg>
